<!DOCTYPE svg PUBLIC "-//W3C//DTD SVG 20010904//EN" "http://www.w3.org/TR/2001/REC-SVG-20010904/DTD/svg10.dtd">
<svg version="1.0" xmlns="http://www.w3.org/2000/svg" width="38px" height="44px" viewBox="0 0 380 440" preserveAspectRatio="xMidYMid meet">
    <g id="layer101" fill="#ffffff" stroke="none">
        <path d="M97 370 c-37 -38 -74 -85 -82 -105 -54 -127 37 -265 175 -265 138 0 229 138 175 265 -21 52 -145 175 -175 175 -17 0 -45 -21 -93 -70z m166 -40 c70 -74 85 -109 73 -174 -29 -154 -263 -154 -292 0 -12 65 3 100 73 174 36 39 69 70 73 70 4 0 37 -31 73 -70z"/>
        <path d="M154 281 c-32 -14 -64 -60 -64 -93 0 -42 57 -98 100 -98 44 0 100 56 100 99 0 61 -80 115 -136 92z m70 -52 c14 -11 26 -29 26 -40 0 -25 -35 -59 -60 -59 -24 0 -60 34 -60 55 0 17 43 65 58 65 5 0 21 -9 36 -21z"/>
    </g>
</svg>