<!DOCTYPE svg PUBLIC "-//W3C//DTD SVG 20010904//EN" "http://www.w3.org/TR/2001/REC-SVG-20010904/DTD/svg10.dtd">
<svg version="1.0" xmlns="http://www.w3.org/2000/svg" width="48px" height="36px" viewBox="0 0 480 360" preserveAspectRatio="xMidYMid meet">
<g id="layer101" fill="#ffffff" stroke="none">
 <path d="M17 342 c-14 -16 -17 -43 -17 -164 0 -128 2 -147 18 -161 16 -15 47 -17 224 -17 186 0 206 2 221 18 14 16 17 43 17 164 0 128 -2 147 -18 161 -16 15 -47 17 -224 17 -186 0 -206 -2 -221 -18z m333 -77 l-64 -65 -21 20 c-27 25 -40 25 -64 1 -18 -18 -20 -18 -82 45 l-63 64 179 0 179 0 -64 -65z m95 -85 c0 -72 -2 -130 -5 -130 -3 0 -35 29 -70 65 l-64 65 64 65 c35 36 67 65 70 65 3 0 5 -58 5 -130z m-288 -4 c-1 -1 -29 -27 -62 -58 l-60 -57 0 119 0 119 62 -61 c34 -34 61 -62 60 -62z m173 -61 l85 -85 -180 0 -180 0 85 85 c47 47 89 85 95 85 6 0 48 -38 95 -85z"/>
 </g>

</svg>