<!DOCTYPE svg PUBLIC "-//W3C//DTD SVG 20010904//EN" "http://www.w3.org/TR/2001/REC-SVG-20010904/DTD/svg10.dtd">
<svg version="1.0" xmlns="http://www.w3.org/2000/svg" width="40px" height="46px" viewBox="0 0 400 460" preserveAspectRatio="xMidYMid meet">
<g id="layer101" fill="#ffffff" stroke="none">
 <path d="M179 431 c-104 -65 -179 -201 -179 -322 0 -52 3 -60 31 -84 42 -35 76 -30 106 14 30 44 32 116 4 130 -16 9 -18 16 -11 47 13 56 37 76 81 69 32 -5 42 -2 72 25 19 17 40 44 46 61 10 28 8 34 -18 60 -38 37 -74 37 -132 0z m106 -21 c16 -18 17 -23 5 -45 -21 -39 -56 -58 -80 -43 -16 10 -24 9 -47 -8 -67 -50 -96 -141 -53 -164 23 -12 25 -33 9 -79 -8 -22 -17 -31 -32 -31 -43 0 -52 15 -51 84 1 52 7 78 32 129 36 73 96 140 144 161 45 20 52 19 73 -4z"/>
 <path d="M367 233 c6 -77 -24 -138 -85 -168 -41 -20 -56 -45 -27 -45 41 0 99 48 129 108 23 45 19 155 -6 160 -14 3 -16 -5 -11 -55z"/>
 <path d="M300 221 c0 -52 -24 -95 -60 -106 -21 -7 -28 -35 -9 -35 25 0 72 38 90 72 28 54 24 118 -7 118 -10 0 -14 -14 -14 -49z"/>
 <path d="M240 227 c0 -13 -9 -32 -20 -42 -25 -23 -25 -35 0 -35 24 0 53 41 48 71 -4 32 -28 37 -28 6z"/>
 </g>

</svg>